/* XPM */
static xpm_row_t const Pingu_right1[] = {
"30 50 16 1",
" 	c None",
".	c #47704C",
"+	c #484850",
"@	c #201820",
"#	c #303038",
"$	c #101010",
"%	c #E0E0E8",
"&	c #B0B0B0",
"*	c #704010",
"=	c #737372",
"-	c #F8F8F8",
";	c #707070",
">	c #F8E810",
",	c #D8A010",
"'	c #CDCDCD",
")	c #A0A0A0",
"             @@####           ",
"             @@####           ",
"        @@@@@++++++####       ",
"        @@@@@++++++####       ",
"      @@###++++++++++++###    ",
"      @@###++++++++++++###    ",
"      @@+++++++%%%%++++@@@    ",
"      @@+++++++%%%%++++@@@    ",
"    @@##+++++--$$$$--+++++@@  ",
"    @@##+++++--$$$$--+++++@@  ",
"    @@#####++--$$$$--++*****  ",
"    @@#####++--$$$$--++*****  ",
"    $$#####++++----++++>>>,,**",
"    $$#####++++----++++>>>,,**",
"      @@#####++++++++++*****  ",
"      @@#####++++++++++*****  ",
"      $$#########++++++###    ",
"      $$#########++++++###    ",
"        $$$############       ",
"        $$$############       ",
"      @@###++++@@++%%%%###    ",
"      @@###++++@@++%%%%###    ",
"      @@+++++##@@%%%%%%;;;    ",
"      @@+++++##@@%%%%%%;;;    ",
"    @@##+++++@@&&%%%%%%&&&@@  ",
"    @@##+++++@@&&%%%%%%&&&@@  ",
"    @@+++++++@@&&%%%%%%%%%;;  ",
"    @@+++++++@@&&%%%%%%%%%;;  ",
"    @@+++++++@@&&%%%%%%%%%&&  ",
"    @@+++++++@@&&%%%%%%%%%&&  ",
"    @@##+++##@@&&%%%%%%%%%&&@@",
"    @@##+++##@@&&%%%%%%%%%&&@@",
"    $$@@+++@@++&&&&%%%%%%%;;@@",
"    $$@@+++@@++&&&&%%%%%%%;;@@",
"    $$@@###@@++&&&&&&&&&&&@@@@",
"    $$@@###@@++&&&&&&&&&&&@@@@",
"  $$@@@@@@@####++&&&&&&;;;    ",
"  $$@@@@@@@####++&&&&&&;;;    ",
"$$@@@@+++++++####++&&&&@@@    ",
"$$@@@@+++++++####++&&&&@@@    ",
"  $$@@##+++++########@@       ",
"  $$@@##+++++########@@       ",
"    $$*********####@@*****    ",
"    $$*********####@@*****    ",
"    **,,>>>>>>>**$$>>>>>>>**  ",
"    **,,>>>>>>>**$$>>>>>>>**  ",
"    $$=='''==''==,,,,=='''==  ",
"    $$=='''==''==,,,,=='''==  ",
"      $$===$$==$$$$$$$$===$$  ",
"      $$===$$==$$$$$$$$===$$  "};


static xpm_row_t const Pingu_right2[] = {
"30 50 16 1",
" 	c None",
".	c #47704C",
"+	c #484850",
"@	c #201820",
"#	c #303038",
"$	c #101010",
"%	c #E0E0E8",
"&	c #B0B0B0",
"*	c #704010",
"=	c #737372",
"-	c #F8F8F8",
";	c #707070",
">	c #F8E810",
",	c #D8A010",
"'	c #CDCDCD",
")	c #A0A0A0",
"             @@####           ",
"             @@####           ",
"         @@@@++++++#####      ",
"         @@@@++++++#####      ",
"      @@@##+++++++++++++##    ",
"      @@@##+++++++++++++##    ",
"      @@@++++++%%%%+++++@@    ",
"      @@@++++++%%%%+++++@@    ",
"    @@###++++--$$$$--+++++@@  ",
"    @@###++++--$$$$--+++++@@  ",
"    @@#####++--$$$$--+++****  ",
"    @@#####++--$$$$--+++****  ",
"    $$#####++++----+++++>>,,**",
"    $$#####++++----+++++>>,,**",
"      @@@####+++++++++++****  ",
"      @@@####+++++++++++****  ",
"      $$$########+++++++##    ",
"      $$$########+++++++##    ",
"         $$#############      ",
"         $$#############      ",
"      @@@##++++@@++%%%%%##    ",
"      @@@##++++@@++%%%%%##    ",
"      @@@++++##@@%%%%%%%;;    ",
"      @@@++++##@@%%%%%%%;;    ",
"    @@###++++@@&&%%%%%%%&&@@  ",
"    @@###++++@@&&%%%%%%%&&@@  ",
"    @@+++++++@@&&%%%%%%%%%;;  ",
"    @@+++++++@@&&%%%%%%%%%;;  ",
"    @@+++++++@@&&%%%%%%%%%&&  ",
"    @@+++++++@@&&%%%%%%%%%&&  ",
"    @@###++##@@&&%%%%%%%%%&&@@",
"    @@###++##@@&&%%%%%%%%%&&@@",
"    $$@@@++@@++&&&&%%%%%%%;;@@",
"    $$@@@++@@++&&&&%%%%%%%;;@@",
"    $$@@@##@@++&&&&&&&&&&&@@@@",
"    $$@@@##@@++&&&&&&&&&&&@@@@",
"  $$@@@@@@@####++&&&&&&&;;    ",
"  $$@@@@@@@####++&&&&&&&;;    ",
"$$@@@@+++++++####++&&&&&@@    ",
"$$@@@@+++++++####++&&&&&@@    ",
"  $$@@###++++########@@@      ",
"  $$@@###++++########@@@      ",
"    $$#####********@@***      ",
"    $$#####********@@***      ",
"      $$$**,,>>>>>>**>>>**    ",
"      $$$**,,>>>>>>**>>>**    ",
"         $$==''==''=='''==    ",
"         $$==''==''=='''==    ",
"           $$==$$==$$===$$    ",
"           $$==$$==$$===$$    "};

static xpm_row_t const Pingu_right3[] = {

"30 50 16 1",
" 	c None",
".	c #47704C",
"+	c #484850",
"@	c #201820",
"#	c #303038",
"$	c #101010",
"%	c #E0E0E8",
"&	c #B0B0B0",
"*	c #704010",
"=	c #737372",
"-	c #F8F8F8",
";	c #707070",
">	c #F8E810",
",	c #D8A010",
"'	c #CDCDCD",
")	c #A0A0A0",
"             @@####           ",
"             @@####           ",
"         @@@@++++++#####      ",
"         @@@@++++++#####      ",
"       @@##+++++++++++++##    ",
"       @@##+++++++++++++##    ",
"       @@++++++%%%%+++++@@    ",
"       @@++++++%%%%+++++@@    ",
"    @@@##++++--$$$$---++++@@  ",
"    @@@##++++--$$$$---++++@@  ",
"    @@@####++--$$$$---++****  ",
"    @@@####++--$$$$---++****  ",
"    $$$####++++----+++++>>,,**",
"    $$$####++++----+++++>>,,**",
"       @@####+++++++++++****  ",
"       @@####+++++++++++****  ",
"       $$########+++++++##    ",
"       $$########+++++++##    ",
"         $$#############      ",
"         $$#############      ",
"       @@##++++@@++%%%%%##    ",
"       @@##++++@@++%%%%%##    ",
"       @@++++##@@%%%%%%%;;    ",
"       @@++++##@@%%%%%%%;;    ",
"    @@@##++++@@&&%%%%%%%&&@@  ",
"    @@@##++++@@&&%%%%%%%&&@@  ",
"    @@@++++++@@&&%%%%%%%%%;;  ",
"    @@@++++++@@&&%%%%%%%%%;;  ",
"    @@@++++++@@&&%%%%%%%%%&&  ",
"    @@@++++++@@&&%%%%%%%%%&&  ",
"    @@@##++##@@&&%%%%%%%%%&&@@",
"    @@@##++##@@&&%%%%%%%%%&&@@",
"    $$$@@++@@++&&&&%%%%%%%;;@@",
"    $$$@@++@@++&&&&%%%%%%%;;@@",
"    $$$@@##@@++&&&&&&&&&&&@@@@",
"    $$$@@##@@++&&&&&&&&&&&@@@@",
"  $$@@@@@@@####++&&&&&&&;;    ",
"  $$@@@@@@@####++&&&&&&&;;    ",
"$$@@@@@++++++####++&&&&&@@    ",
"$$@@@@@++++++####++&&&&&@@    ",
"  $$@@@##++++#########@@      ",
"  $$@@@##++++#########@@      ",
"    $$$########*********      ",
"    $$$########*********      ",
"       $$$$$$$$,,>>>>>>>**    ",
"       $$$$$$$$,,>>>>>>>**    ",
"       $$==''$$,,,,===''==    ",
"       $$==''$$,,,,===''==    ",
"         $$==$$$$$$$$$==$$    ",
"         $$==$$$$$$$$$==$$    "};
