/* XPM */
static xpm_row_t const Pingu_down1[] = {
"30 50 16 1",
" 	c None",
".	c #47704C",
"+	c #484850",
"@	c #201820",
"#	c #303038",
"$	c #101010",
"%	c #E0E0E8",
"&	c #B0B0B0",
"*	c #704010",
"=	c #737372",
"-	c #F8F8F8",
";	c #707070",
">	c #F8E810",
",	c #D8A010",
"'	c #CDCDCD",
")	c #A0A0A0",
"            @@@@@@            ",
"            @@@@@@            ",
"        @@@@++++++@@@@        ",
"        @@@@++++++@@@@        ",
"      @@##++++++++++##@@      ",
"      @@##++++++++++##@@      ",
"      @@%%%%++++++%%%%@@      ",
"      @@%%%%++++++%%%%@@      ",
"    @@))$$$$--++--$$$$))@@    ",
"    @@))$$$$--++--$$$$))@@    ",
"    @@))$$$$--**--$$$$))@@    ",
"    @@))$$$$--**--$$$$))@@    ",
"    $$##----,,>>,,----##$$    ",
"    $$##----,,>>,,----##$$    ",
"      @@##++******++##@@      ",
"      @@##++******++##@@      ",
"      $$##++++++++++##$$      ",
"      $$##++++++++++##$$      ",
"        $$##########$$        ",
"        $$##########$$        ",
"    @@++##++%%%%%%++##++@@    ",
"    @@++##++%%%%%%++##++@@    ",
"  @@++##@@%%%%%%%%%%@@##++@@  ",
"  @@++##@@%%%%%%%%%%@@##++@@  ",
"@@##++@@;;%%%%%%%%%%;;@@++##@@",
"@@##++@@;;%%%%%%%%%%;;@@++##@@",
"@@##++@@&&%%%%%%%%%%&&@@++##@@",
"@@##++@@&&%%%%%%%%%%&&@@++##@@",
"@@##++@@&&%%%%%%%%%%&&@@++##@@",
"@@##++@@&&%%%%%%%%%%&&@@++##@@",
"@@##++@@&&%%%%%%%%%%&&@@++##@@",
"@@##++@@&&%%%%%%%%%%&&@@++##@@",
"  @@++@@&&&&%%%%%%&&&&@@++@@  ",
"  @@++@@&&&&%%%%%%&&&&@@++@@  ",
"  @@##@@;;&&&&&&&&&&;;@@##@@  ",
"  @@##@@;;&&&&&&&&&&;;@@##@@  ",
"    @@##++;;&&&&&&;;++##@@    ",
"    @@##++;;&&&&&&;;++##@@    ",
"    $$####++;;;;;;++####$$    ",
"    $$####++;;;;;;++####$$    ",
"    $$@@##++######++##@@$$    ",
"    $$@@##++######++##@@$$    ",
"      $$@@########****$$      ",
"      $$@@########****$$      ",
"      $$$$$$$$$$**>>>>,,      ",
"      $$$$$$$$$$**>>>>,,      ",
"      $$$$$$$$  ==''==''      ",
"      $$$$$$$$  ==''==''      ",
"                $$==$$==      ",
"                $$==$$==      "};

static xpm_row_t const Pingu_down2[] = {
"30 50 16 1",
" 	c None",
".	c #47704C",
"+	c #484850",
"@	c #201820",
"#	c #303038",
"$	c #101010",
"%	c #E0E0E8",
"&	c #B0B0B0",
"*	c #704010",
"=	c #737372",
"-	c #F8F8F8",
";	c #707070",
">	c #F8E810",
",	c #D8A010",
"'	c #CDCDCD",
")	c #A0A0A0",
"            @@@@@@            ",
"            @@@@@@            ",
"        @@@@++++++@@@@        ",
"        @@@@++++++@@@@        ",
"      @@##++++++++++##@@      ",
"      @@##++++++++++##@@      ",
"      @@%%%%++++++%%%%@@      ",
"      @@%%%%++++++%%%%@@      ",
"    @@))$$$$--++--$$$$))@@    ",
"    @@))$$$$--++--$$$$))@@    ",
"    @@))$$$$--**--$$$$))@@    ",
"    @@))$$$$--**--$$$$))@@    ",
"    $$##----,,>>,,----##$$    ",
"    $$##----,,>>,,----##$$    ",
"      @@##++******++##@@      ",
"      @@##++******++##@@      ",
"      $$##++++++++++##$$      ",
"      $$##++++++++++##$$      ",
"        $$##########$$        ",
"        $$##########$$        ",
"    @@++##++%%%%%%++##++@@    ",
"    @@++##++%%%%%%++##++@@    ",
"  @@++##@@%%%%%%%%%%@@##++@@  ",
"  @@++##@@%%%%%%%%%%@@##++@@  ",
"@@##++@@;;%%%%%%%%%%;;@@++##@@",
"@@##++@@;;%%%%%%%%%%;;@@++##@@",
"@@##++@@&&%%%%%%%%%%&&@@++##@@",
"@@##++@@&&%%%%%%%%%%&&@@++##@@",
"@@##++@@&&%%%%%%%%%%&&@@++##@@",
"@@##++@@&&%%%%%%%%%%&&@@++##@@",
"@@##++@@&&%%%%%%%%%%&&@@++##@@",
"@@##++@@&&%%%%%%%%%%&&@@++##@@",
"  @@++@@&&&&%%%%%%&&&&@@++@@  ",
"  @@++@@&&&&%%%%%%&&&&@@++@@  ",
"  @@##@@;;&&&&&&&&&&;;@@##@@  ",
"  @@##@@;;&&&&&&&&&&;;@@##@@  ",
"    @@##++;;&&&&&&;;++##@@    ",
"    @@##++;;&&&&&&;;++##@@    ",
"    $$####++;;;;;;++####$$    ",
"    $$####++;;;;;;++####$$    ",
"    $$@@##++######++##@@$$    ",
"    $$@@##++######++##@@$$    ",
"      $$****######****$$      ",
"      $$****######****$$      ",
"      ,,>>>>**$$**>>>>,,      ",
"      ,,>>>>**$$**>>>>,,      ",
"      ''==''==  ==''==''      ",
"      ''==''==  ==''==''      ",
"      ==$$==$$  $$==$$==      ",
"      ==$$==$$  $$==$$==      "};


static xpm_row_t const Pingu_down3[] = {

"30 50 16 1",
" 	c None",
".	c #47704C",
"+	c #484850",
"@	c #201820",
"#	c #303038",
"$	c #101010",
"%	c #E0E0E8",
"&	c #B0B0B0",
"*	c #704010",
"=	c #737372",
"-	c #F8F8F8",
";	c #707070",
">	c #F8E810",
",	c #D8A010",
"'	c #CDCDCD",
")	c #A0A0A0",
"            @@@@@@            ",
"            @@@@@@            ",
"        @@@@++++++@@@@        ",
"        @@@@++++++@@@@        ",
"      @@##++++++++++##@@      ",
"      @@##++++++++++##@@      ",
"      @@%%%%++++++%%%%@@      ",
"      @@%%%%++++++%%%%@@      ",
"    @@))$$$$--++--$$$$))@@    ",
"    @@))$$$$--++--$$$$))@@    ",
"    @@))$$$$--**--$$$$))@@    ",
"    @@))$$$$--**--$$$$))@@    ",
"    $$##----,,>>,,----##$$    ",
"    $$##----,,>>,,----##$$    ",
"      @@##++******++##@@      ",
"      @@##++******++##@@      ",
"      $$##++++++++++##$$      ",
"      $$##++++++++++##$$      ",
"        $$##########$$        ",
"        $$##########$$        ",
"    @@++##++%%%%%%++##++@@    ",
"    @@++##++%%%%%%++##++@@    ",
"  @@++##@@%%%%%%%%%%@@##++@@  ",
"  @@++##@@%%%%%%%%%%@@##++@@  ",
"@@##++@@;;%%%%%%%%%%;;@@++##@@",
"@@##++@@;;%%%%%%%%%%;;@@++##@@",
"@@##++@@&&%%%%%%%%%%&&@@++##@@",
"@@##++@@&&%%%%%%%%%%&&@@++##@@",
"@@##++@@&&%%%%%%%%%%&&@@++##@@",
"@@##++@@&&%%%%%%%%%%&&@@++##@@",
"@@##++@@&&%%%%%%%%%%&&@@++##@@",
"@@##++@@&&%%%%%%%%%%&&@@++##@@",
"  @@++@@&&&&%%%%%%&&&&@@++@@  ",
"  @@++@@&&&&%%%%%%&&&&@@++@@  ",
"  @@##@@;;&&&&&&&&&&;;@@##@@  ",
"  @@##@@;;&&&&&&&&&&;;@@##@@  ",
"    @@##++;;&&&&&&;;++##@@    ",
"    @@##++;;&&&&&&;;++##@@    ",
"    $$####++;;;;;;++####$$    ",
"    $$####++;;;;;;++####$$    ",
"    $$@@##++######++##@@$$    ",
"    $$@@##++######++##@@$$    ",
"      $$****########@@$$      ",
"      $$****########@@$$      ",
"      ,,>>>>**$$$$$$$$$$      ",
"      ,,>>>>**$$$$$$$$$$      ",
"      ''==''==  $$$$$$$$      ",
"      ''==''==  $$$$$$$$      ",
"      ==$$==$$                ",
"      ==$$==$$                "};


/* XPM */
static xpm_row_t const skull[] = {
"40 39 216 2",
"  	c None",
". 	c #575757",
"+ 	c #000000",
"@ 	c #080808",
"# 	c #030303",
"$ 	c #4B4B4B",
"% 	c #292929",
"& 	c #050505",
"* 	c #060606",
"= 	c #040404",
"- 	c #252527",
"; 	c #0F0F0F",
"> 	c #070707",
", 	c #646464",
"' 	c #EEEEEE",
") 	c #FFFFFF",
"! 	c #FEFEFE",
"~ 	c #FAFAFA",
"{ 	c #FCFCFC",
"] 	c #F1F1F1",
"^ 	c #BFBFBF",
"/ 	c #434343",
"( 	c #020202",
"_ 	c #000002",
": 	c #0F0F11",
"< 	c #C1C1C3",
"[ 	c #E4E4E4",
"} 	c #B9B9B9",
"| 	c #B5B5B7",
"1 	c #060608",
"2 	c #C4C4C6",
"3 	c #0C0C0C",
"4 	c #F9F9F9",
"5 	c #B6B6B6",
"6 	c #C0C0C0",
"7 	c #010101",
"8 	c #0B0B0B",
"9 	c #0E0E0E",
"0 	c #363636",
"a 	c #383838",
"b 	c #424242",
"c 	c #FBFBFB",
"d 	c #C7C7C7",
"e 	c #B1B1B1",
"f 	c #2F2F2F",
"g 	c #151515",
"h 	c #6C6C6C",
"i 	c #F7F7F7",
"j 	c #B7B7B7",
"k 	c #161616",
"l 	c #7E7E80",
"m 	c #F4F4F4",
"n 	c #FDFDFD",
"o 	c #BBBBBB",
"p 	c #ACACAC",
"q 	c #858585",
"r 	c #F2F2F2",
"s 	c #AFAFAF",
"t 	c #232323",
"u 	c #A1A1A1",
"v 	c #F0F0F0",
"w 	c #D8D8D8",
"x 	c #A6A6A6",
"y 	c #090909",
"z 	c #F3F3F3",
"A 	c #E5E5E5",
"B 	c #494949",
"C 	c #4D4D4D",
"D 	c #2B2B2B",
"E 	c #E9E9E9",
"F 	c #505050",
"G 	c #C1C1C1",
"H 	c #878787",
"I 	c #101010",
"J 	c #3D3D3D",
"K 	c #5E5E5E",
"L 	c #BDBDBD",
"M 	c #C4C4C4",
"N 	c #545454",
"O 	c #F8F8F8",
"P 	c #F4F4F6",
"Q 	c #BDBDBF",
"R 	c #BDBCC1",
"S 	c #616161",
"T 	c #F5F5F5",
"U 	c #707070",
"V 	c #242424",
"W 	c #BCBCBC",
"X 	c #F9F9FB",
"Y 	c #555555",
"Z 	c #E2E2E2",
"` 	c #1D1D1D",
" .	c #272727",
"..	c #E8E8E8",
"+.	c #414141",
"@.	c #FCFCFE",
"#.	c #404040",
"$.	c #2A2A2A",
"%.	c #111111",
"&.	c #EAEAEA",
"*.	c #FAFCFB",
"=.	c #FEFFFF",
"-.	c #BCBDBF",
";.	c #BCBDC1",
">.	c #777777",
",.	c #EBECEE",
"'.	c #676767",
").	c #181818",
"!.	c #C2C2C2",
"~.	c #CFD0D2",
"{.	c #626262",
"].	c #1E1E1E",
"^.	c #B0B0B0",
"/.	c #B5B5B5",
"(.	c #818181",
"_.	c #C5C5C5",
":.	c #ABABAB",
"<.	c #B7B8BA",
"[.	c #B2B3B7",
"}.	c #95969A",
"|.	c #222222",
"1.	c #ECECEC",
"2.	c #7B7B7B",
"3.	c #141414",
"4.	c #FBFDFC",
"5.	c #BABBBD",
"6.	c #AEAFB1",
"7.	c #000004",
"8.	c #07080C",
"9.	c #3A3A3A",
"0.	c #F6F6F6",
"a.	c #585858",
"b.	c #A9A9A9",
"c.	c #0A0A0C",
"d.	c #D4D4D6",
"e.	c #FEFEFF",
"f.	c #FDFDFF",
"g.	c #BABABA",
"h.	c #B2B2B4",
"i.	c #030305",
"j.	c #9F9F9F",
"k.	c #727272",
"l.	c #191919",
"m.	c #A3A3A3",
"n.	c #1B1B1B",
"o.	c #5C5C5C",
"p.	c #2C2C2E",
"q.	c #BCBCBE",
"r.	c #D6D6D8",
"s.	c #CDCDCD",
"t.	c #0D0D0D",
"u.	c #A5A5A5",
"v.	c #DEDEDE",
"w.	c #AAAAAA",
"x.	c #E1E1E1",
"y.	c #969698",
"z.	c #ADADAF",
"A.	c #EEEEF0",
"B.	c #B7B7B9",
"C.	c #A7A7A7",
"D.	c #9E9E9E",
"E.	c #5D5D5D",
"F.	c #848484",
"G.	c #9C9C9C",
"H.	c #252525",
"I.	c #707072",
"J.	c #ABABAD",
"K.	c #BBBBBD",
"L.	c #757575",
"M.	c #C3C3C3",
"N.	c #373737",
"O.	c #0C0C0E",
"P.	c #A0A0A2",
"Q.	c #A4A4A6",
"R.	c #C0C0C2",
"S.	c #E3E3E5",
"T.	c #B6B6B8",
"U.	c #7B7B7D",
"V.	c #121212",
"W.	c #565656",
"X.	c #969696",
"Y.	c #BEBEBE",
"Z.	c #A2A2A2",
"`.	c #474747",
" +	c #EFEFEF",
".+	c #666666",
"++	c #AEAEAE",
"@+	c #737373",
"#+	c #B8B8B8",
"$+	c #898989",
"%+	c #535353",
"&+	c #131313",
"*+	c #9D9D9D",
"=+	c #0E0F0A",
"-+	c #010200",
";+	c #000100",
">+	c #CACACA",
",+	c #DDDDDB",
"'+	c #7E7E7C",
")+	c #4E4E4E",
"!+	c #1C1C1C",
"~+	c #2C2C2C",
"{+	c #D5D5D5",
"]+	c #E4E3E8",
"^+	c #BFBEC3",
"/+	c #BBBABF",
"(+	c #B9B8BD",
"_+	c #C0BFC4",
":+	c #BBBAC0",
"<+	c #BCBBC1",
"[+	c #C0BFC5",
"}+	c #C1C0C6",
"|+	c #BFBEC4",
"1+	c #BEBDC3",
"2+	c #BAB9BE",
"3+	c #BCBBC0",
"                                                                                ",
"                                . + @ + + + # $                                 ",
"                          % + # & + + * = + = + # # -                           ",
"                      ; > + + , ' ) ! ~ { ) ] ^ / ( _ _ :                       ",
"                  < _ + + [ ) ) { ) ) ! ) ) ) ) ) } | _ 1 _ 2                   ",
"                > + + 3 ) 4 ) ) ) ) ) ) ) ) ) ) ! ) ! 5 6 7 8 (                 ",
"              9 + 0 ~ a b c ) ) ) ) ) ) ) ) ) { ) ) ) ) d e f @ +               ",
"            g 8 h i ) ) i ) ) ) ) ) ) ) ) ) ) ) ) ) ) ) c 5 j $ + k             ",
"          l + + m ) ) ! n ! ) ) ) ) ) ) ) ) ) ) ) ) ) ) ) c o p = # q           ",
"    r r s + + ) c ) ) ) ) ) ) ) ) ) ) ) ) ) ) ) ) ) ! ) ) ~ m t + + + u         ",
"        + = ) i ! ) ) ) ) ) ) ) ) ) ) ) ) ) ) ) ) ) ) n v w * + x d + y   z     ",
"    A   & B ) ) n ) ) ) ) ) ) ) ) ) ) ) ) ) ) ) ) ) ) ! C D C + + * + =         ",
"    E F + ) ) ) ) ) ) ) ) ) ) ) ) ) ) ) ) ) ) ) ) ) ) ) ) ) ) n G H I @ J       ",
"      & K ) ) ) ) ) ) ) ) ) ) ) ) ) ) ) ) ) ) ) ) ) ) ) ) ) ) 4 L M s N =       ",
"      ( z 4 c E ) ! ) ! ! ! ) ) ) ) ) { ) ! ~ ) ) O ) ! ) ) ) ) P Q R R 7       ",
"    S + { ) T U 4 ~ ] ! ! ! ) ) ) ) { ) ) ) ) V 7 W ! ) ) ) ) ! X Q R R & Y     ",
"    8 ( { ) 6 = + 0 n ! ! ! ) ) ) ) n ) Z ` + ; >  .n ) ) ) ) { ) Q R R ( *     ",
"    + # ) n ..= @ + + +.) ) ) ~ r ) p + * + & 3 x O ) ) ) ) ) n ) Q R R + +     ",
"    + + n c 4 ) T J + + ; # ) ) k # + + 7 q ] ) r O ) ) ) ) ) c @.Q R R + +     ",
"    + * 4 ) r i ) ) 4 #.3 @ ~ ) $.%.+ &.! n i c ) ) ) ) ) ) ) *.=.-.;.;.+ +     ",
"    @ + ) { ! ) ..n ) ! ) O c 4 ) i { B ` >.n { ! { ) ) ) ) ) =.,.-.;.;.= +     ",
"    '.& c { ) { ).y + + 5 ' ) ) ' !.+ + ( + + o ) ) ) ) ) ) ) =.~.-.;.;.& {.    ",
"      + v O n ].+ ^./.+ + (.) ) _.+ ( r ' y = * :.) ) ) ) ) ) =.-.<.[.}.7       ",
"      @ |.{ ) @ 1.w { 2.7 + o ~ 3.8 m ) T ) + + $ ) ) ) ) ) ) 4.5.6.7.8.+       ",
"      9.+ 0.! & 7 a.) ) ( = b.! + + + & { X _ _ c.d.e.e.f.e.) o 6 g.h.i.j.      ",
"        + k.c 7 @ + T . + l.m.n # + n.o.) ) c._ p.q.e.e.) ) r.s + * @ (         ",
"        8 8 ) s.@ t.+ + + u.v.) w.+ q x.T y._ _ z.A.e.e.) B.Q } C.%.+           ",
"        D.7 E.0.F.y y U G.^.) ) ) H.+ + + _ _ I.J.@.e.< Q K.| L.+ > M.          ",
"          + = T ) e w.:.E r ! ) v x.N.@ + O.P.Q.R.X S.T.U.: _ = V.              ",
"          W.+ X.) ) n ) ~ ) ) i ) 4 Y.Z.u.o s w { O _.o + > ( `.                ",
"            + t.) m i b. +) ) &.! T T z ) ) 0.T ) &.L .++                       ",
"              = + ) { + + ) + E ~ ++@+n ) # { ) ) g.} + +                       ",
"              #+& + E & + { + $+c ; + 4 ) @ ) ..} w.t.+ s                       ",
"                %++ + # 3 4 * G.) 3 + 4 n + !.Z.&++ + *+                        ",
"                    x.=+-+;+-+;++ # + + # 7 + 9 ( >+                            ",
"                            ,+'+)+$.n.!+~+a.{+                                  ",
"                                                                                ",
"                                    ]+]+]+                                      ",
"              Z #+L Y.^+/+(+_+/+:+<+<+<+<+[+}+|+1+R 2+3+3+R Q Y.[               "};
