/* XPM */
static xpm_row_t const ponteiro[] = {
"20 20 34 1",
" 	c None",
".	c #006599",
"+	c #00598D",
"@	c #016599",
"#	c #99FFFF",
"$	c #80E6FD",
"%	c #6DD2FF",
"&	c #006496",
"*	c #00CCFF",
"=	c #02B3E5",
"-	c #0093C6",
";	c #66CBFF",
">	c #00659B",
",	c #01CDFF",
"'	c #00C6F7",
")	c #0099CB",
"!	c #65C6F9",
"~	c #009ACC",
"{	c #0199CB",
"]	c #48B4D8",
"^	c #0195C5",
"/	c #003466",
"(	c #1CD4FA",
"_	c #1DD3FA",
":	c #13A1D1",
"<	c #016194",
"[	c #8CEBEF",
"}	c #8BEAEE",
"|	c #89EFF3",
"1	c #00CAFC",
"2	c #67CBFF",
"3	c #5DBDF0",
"4	c #97FBFB",
"5	c #016295",
"                    ",
"         ..+        ",
"       @.#$%.       ",
"      &##*=-;..     ",
"      .##*=-;.>     ",
"     .#,'*=));;.    ",
"   ..#****=))))!.   ",
"  @##*****=)))~{;>@ ",
"  .##*****=)])));.. ",
" .#*******=^)))));;/",
" .#(__(***=))::::;;/",
" <[}[|#**1=));23333/",
" ////.#***=));;/////",
"     .#***=));;/    ",
"     .4***=));;/    ",
"     .#***=));;/    ",
"     .#***=));;/    ",
"     .####$;;;;/    ",
"     5####$;;;;/    ",
"     ///////////    "};
