/* XPM */
static xpm_row_t const river[] = {
"200 60 3 1",
" 	c #1F8AD0",
".	c #40A5E7",
"+	c #5AA2D2",
"                                                                                                                                                                                                        ",
"            ..................................................                                                                                                                                          ",
"............                   +++++++++++++++++++++++++++++++...................                                                  ........................................................             ",
"                                                                                 ......                         ...................                   +++++++++++++++++++++++++++++++++++++.............",
"                                                                                       .......            ......                                                                                        ",
"                                                                                              ............                                                                                              ",
"                                                                                                                                                                                                        ",
"                                                                                                                                                                                                        ",
"                                                                                                                                                                                                        ",
"                                                                                                                                                                                                        ",
"                                                                                                                                                                                                        ",
"            ..................................................                                                                                                                                          ",
"............                   +++++++++++++++++++++++++++++++...................                                                  ........................................................             ",
"                                                                                 ......                         ...................                   +++++++++++++++++++++++++++++++++++++.............",
"                                                                                       .......            ......                                                                                        ",
"                                                                                              ............                                                                                              ",
"                                                                                                                                                                                                        ",
"                                                                                                                                                                                                        ",
"                                                                                                                                                                                                        ",
"                                                                                                                                                                                                        ",
"                                                                                                                                                                                                        ",
"            ..................................................                                                                                                                                          ",
"                                                                                 ......                         ...................                   +++++++++++++++++++++++++++++++++++++.............",
"                                                                                       .......            ......                                                                                        ",
"                                                                                              ............                                                                                              ",
"                                                                                                                                                                                                        ",
"                                                                                                                                                                                                        ",
"                                                                                                                                                                                                        ",
"                                                                                                                                                                                                        ",
"                                                                                                                                                                                                        ",
"                                                                                                                                                                                                        ",
".........................                                                                                                                                                                               ",
"+++++++++++++++++++++++++...................                                                  ........................................................                                                  ",
"                                            ......                         ...................                  ++++++++++++++++++++++++++++++++++++++............                   ...................",
"                                                  ......             ......                                                                                 ......             ......             ++++++",
"                                                        .............                                                                                             .............                         ",
"                                                                                                                                                                                                        ",
"                                                                                                                                                                                                        ",
"                                                                                                                                                                                                        ",
"                                                                                                                                                                                                        ",
"                                                                                                                                                                                                        ",
".........................                                                                                                                                                                               ",
"+++++++++++++++++++++++++...................                                                  ........................................................                                                  ",
"                                            ......                         ...................                  ++++++++++++++++++++++++++++++++++++++............                   ...................",
"                                                  ......             ......                                                                                 ......             ......             ++++++",
"                                                        .............                                                                                             .............                         ",
"                                                                                                                                                                                                        ",
"                                                                                                                                                                                                        ",
"                                                                                                                                                                                                        ",
"                                                                                                                                                                                                        ",
"                                                                                                                                                                                                        ",
".........................                                                                                                                                                                               ",
"                                            ......                         ...................                  ++++++++++++++++++++++++++++++++++++++............                   ...................",
"                                                  ......             ......                                                                                 ......             ......             ++++++",
"                                                        .............                                                                                             .............                         ",
"                                                                                                                                                                                                        ",
"                                                                                                                                                                                                        ",
"                                                                                                                                                                                                        ",
"                                                                                                                                                                                                        ",
"                                                                                                                                                                                                        "};
