/* XPM */
static xpm_row_t const snowman[] = {
"25 50 766 2",
"  	c None",
". 	c #8DBAD5",
"+ 	c #94BAD4",
"@ 	c #A0BFD8",
"# 	c #AECADA",
"$ 	c #ABCADD",
"% 	c #A7C8DD",
"& 	c #A5C7DE",
"* 	c #87B8D7",
"= 	c #93BBD7",
"- 	c #98BDD8",
"; 	c #A7C4D8",
"> 	c #B3CCDA",
", 	c #ADCADC",
"' 	c #A6C8DE",
") 	c #A4C7DD",
"! 	c #8BB8D5",
"~ 	c #94BAD8",
"{ 	c #99BEDA",
"] 	c #A5C4DA",
"^ 	c #AFC6DA",
"/ 	c #B4CDDC",
"( 	c #B3CCDB",
"_ 	c #B2CBDC",
": 	c #A9CADD",
"< 	c #A6C7DD",
"[ 	c #A6C6DD",
"} 	c #A4C7DF",
"| 	c #90B8D6",
"1 	c #9ABDDA",
"2 	c #A3C4DA",
"3 	c #ABC4D9",
"4 	c #ABC3D6",
"5 	c #ACC6D6",
"6 	c #B2CBDB",
"7 	c #B2CCDB",
"8 	c #B0CBDD",
"9 	c #AECBDC",
"0 	c #A7C9DE",
"a 	c #A6C7DE",
"b 	c #94BAD9",
"c 	c #98BBD8",
"d 	c #A5C3D9",
"e 	c #A5C5D6",
"f 	c #95B1C8",
"g 	c #95B3C9",
"h 	c #A1BCD2",
"i 	c #A4C2D3",
"j 	c #A6C3D6",
"k 	c #AAC5D8",
"l 	c #AFC8DA",
"m 	c #B1CCDB",
"n 	c #AFCBDC",
"o 	c #A8C7DE",
"p 	c #95BCD8",
"q 	c #96BBD8",
"r 	c #9BBED8",
"s 	c #A3C2D8",
"t 	c #97B4CB",
"u 	c #8DABC2",
"v 	c #91B2C8",
"w 	c #97B9CD",
"x 	c #95B7CE",
"y 	c #97B8D0",
"z 	c #9BBCD1",
"A 	c #A2C1D5",
"B 	c #ACC4DA",
"C 	c #B0C9DB",
"D 	c #ACC9DC",
"E 	c #A8C8DD",
"F 	c #A6C6DE",
"G 	c #A5C6DE",
"H 	c #94BBD8",
"I 	c #9BC0D8",
"J 	c #9DBDD3",
"K 	c #8DAEC2",
"L 	c #52758D",
"M 	c #133953",
"N 	c #688DA5",
"O 	c #8FB5CD",
"P 	c #93B7CE",
"Q 	c #9BBBD1",
"R 	c #6B8DA3",
"S 	c #244962",
"T 	c #AEC6D8",
"U 	c #B2C9DC",
"V 	c #AACADD",
"W 	c #95BBD9",
"X 	c #96BCD9",
"Y 	c #9DBFD8",
"Z 	c #96B6CB",
"` 	c #85A8BE",
" .	c #84A9BE",
"..	c #749AB2",
"+.	c #8DB3CD",
"@.	c #8CB1CA",
"#.	c #8BB2CC",
"$.	c #93B7CF",
"%.	c #92B2C9",
"&.	c #7FA0B6",
"*.	c #AAC7D9",
"=.	c #B1CBDB",
"-.	c #ACCADD",
";.	c #A5C9DE",
">.	c #96BAD9",
",.	c #95BBD7",
"'.	c #9BBFD8",
").	c #83A4BC",
"!.	c #88ACC1",
"~.	c #8EB1CA",
"{.	c #8FB8CE",
"].	c #8BB4CB",
"^.	c #89B2C8",
"/.	c #8EB0C9",
"(.	c #93B6CD",
"_.	c #9FBED5",
":.	c #A9C6D8",
"<.	c #B2CBDA",
"[.	c #A5C6DD",
"}.	c #A5C8DE",
"|.	c #96B9D9",
"1.	c #99BED8",
"2.	c #8EAFC6",
"3.	c #83A7BD",
"4.	c #8AAEC7",
"5.	c #8CB6CE",
"6.	c #92BAD1",
"7.	c #E9F4F8",
"8.	c #DCEAF3",
"9.	c #A7C4D7",
"0.	c #96B3CB",
"a.	c #A3BFD5",
"b.	c #ACC9DD",
"c.	c #94BAD7",
"d.	c #95BBD8",
"e.	c #97BBD6",
"f.	c #8FB0C9",
"g.	c #86A8BF",
"h.	c #82A6BD",
"i.	c #85AAC3",
"j.	c #8CB4CB",
"k.	c #92B6CE",
"l.	c #E6EFF7",
"m.	c #FCFDFF",
"n.	c #FCFCFD",
"o.	c #97B7CD",
"p.	c #9EBAD2",
"q.	c #AFCADC",
"r.	c #ABC9DD",
"s.	c #A5C7DD",
"t.	c #93BBD9",
"u.	c #95BBDA",
"v.	c #95BAD8",
"w.	c #91B4CB",
"x.	c #87ABC4",
"y.	c #83A7BC",
"z.	c #82A5BD",
"A.	c #86A9C1",
"B.	c #88AEC8",
"C.	c #88AFC8",
"D.	c #8AAEC6",
"E.	c #91B2CA",
"F.	c #B5CCDB",
"G.	c #D6E4EB",
"H.	c #B2CADB",
"I.	c #AAC8DD",
"J.	c #94BAD6",
"K.	c #95B9D8",
"L.	c #92B5D1",
"M.	c #8BAFC9",
"N.	c #83A8C1",
"O.	c #81A5BE",
"P.	c #81A6BD",
"Q.	c #82A5BF",
"R.	c #84A8C2",
"S.	c #86AABF",
"T.	c #8AADC3",
"U.	c #90B2C8",
"V.	c #98BACE",
"W.	c #A3C3D9",
"X.	c #A9C9DD",
"Y.	c #94BBD7",
"Z.	c #93B9D5",
"`.	c #8EB4CF",
" +	c #87ACC7",
".+	c #83A7C1",
"++	c #80A5BE",
"@+	c #82A5BC",
"#+	c #84A7BE",
"$+	c #89A8C0",
"%+	c #90B3CB",
"&+	c #98B9D1",
"*+	c #A3C4DC",
"=+	c #93BAD8",
"-+	c #93BAD6",
";+	c #92B7D4",
">+	c #8FB5D1",
",+	c #8CB1CD",
"'+	c #86A9C2",
")+	c #82A7BD",
"!+	c #89ACC5",
"~+	c #94B6D0",
"{+	c #9DBFD6",
"]+	c #A4C6DE",
"^+	c #ACCADA",
"/+	c #95B8D7",
"(+	c #93B9D8",
"_+	c #94BBD6",
":+	c #95B8D6",
"<+	c #93B8D5",
"[+	c #92B7D5",
"}+	c #91B7D2",
"|+	c #8FB6CF",
"1+	c #89AFC5",
"2+	c #87ACC3",
"3+	c #89AEC6",
"4+	c #91B3CC",
"5+	c #9EC0D5",
"6+	c #A3C4D9",
"7+	c #ACCADC",
"8+	c #94B8D7",
"9+	c #93B9D6",
"0+	c #91B5D0",
"a+	c #91B9D3",
"b+	c #93BAD4",
"c+	c #93BCD5",
"d+	c #94BDD4",
"e+	c #97BFD4",
"f+	c #9CC1D7",
"g+	c #A1C2D7",
"h+	c #A8C7D7",
"i+	c #ABCADB",
"j+	c #B2CCDC",
"k+	c #B3CDDB",
"l+	c #B6CEDC",
"m+	c #B3CFDB",
"n+	c #93BAD7",
"o+	c #94B9D8",
"p+	c #8EB3D0",
"q+	c #8EB3CD",
"r+	c #8DB2CC",
"s+	c #8EB8D1",
"t+	c #8EB9D4",
"u+	c #92BBD5",
"v+	c #95BED5",
"w+	c #98C0D6",
"x+	c #99BFD6",
"y+	c #99C0D6",
"z+	c #9FC3D7",
"A+	c #A6C5D8",
"B+	c #AFCBDB",
"C+	c #B2CDDC",
"D+	c #B3CEDC",
"E+	c #B5CDDC",
"F+	c #94BCD6",
"G+	c #8BAFCC",
"H+	c #89AEC7",
"I+	c #88AFC6",
"J+	c #88B0CB",
"K+	c #8BB5CE",
"L+	c #8CB9D4",
"M+	c #8FBBD2",
"N+	c #8FBCD3",
"O+	c #8EBCD4",
"P+	c #8EBBD2",
"Q+	c #8FBCD2",
"R+	c #92BDD5",
"S+	c #96BED6",
"T+	c #A1C3D8",
"U+	c #AAC9DB",
"V+	c #B4CDDA",
"W+	c #B2CDDB",
"X+	c #94BAD5",
"Y+	c #94B9D6",
"Z+	c #8FB4D0",
"`+	c #86ACC6",
" @	c #84ADC4",
".@	c #85AFC9",
"+@	c #87B2CB",
"@@	c #89B8D0",
"#@	c #89B8D3",
"$@	c #8BBAD3",
"%@	c #8CBAD3",
"&@	c #8BBAD2",
"*@	c #8CB9D2",
"=@	c #8CB8D3",
"-@	c #90BAD3",
";@	c #92BCD3",
">@	c #98BED5",
",@	c #A2C3D7",
"'@	c #B0CBDB",
")@	c #B5CCDA",
"!@	c #B1CDDC",
"~@	c #93B9D7",
"{@	c #92B8D5",
"]@	c #88ADC7",
"^@	c #83A9C1",
"/@	c #84ACC5",
"(@	c #85B2C9",
"_@	c #86B5CF",
":@	c #87B9D3",
"<@	c #87B8D2",
"[@	c #89B9D1",
"}@	c #608BA2",
"|@	c #375C73",
"1@	c #739FB6",
"2@	c #89BAD1",
"3@	c #8DB9D1",
"4@	c #95BDD3",
"5@	c #9ABFD6",
"6@	c #AAC7DA",
"7@	c #B3CDDC",
"8@	c #8DB4CF",
"9@	c #82A7C0",
"0@	c #82AAC3",
"a@	c #84AEC5",
"b@	c #84B5CE",
"c@	c #85B7D1",
"d@	c #83B8D1",
"e@	c #85B7D2",
"f@	c #84B5D0",
"g@	c #103146",
"h@	c #103045",
"i@	c #113247",
"j@	c #80ABC3",
"k@	c #90B9D1",
"l@	c #93BAD1",
"m@	c #96BAD1",
"n@	c #9ABDD5",
"o@	c #A9C7D9",
"p@	c #B4CCDC",
"q@	c #B4CDDB",
"r@	c #B1CCDC",
"s@	c #92BBD8",
"t@	c #89B0C9",
"u@	c #81A6BE",
"v@	c #82A8C2",
"w@	c #84B2CA",
"x@	c #83B7D1",
"y@	c #82B7D2",
"z@	c #82B6D0",
"A@	c #15364B",
"B@	c #204157",
"C@	c #87B1C8",
"D@	c #93BBD1",
"E@	c #95BAD2",
"F@	c #97B9CF",
"G@	c #9BBED3",
"H@	c #AAC7D8",
"I@	c #B3CCDC",
"J@	c #B2CCDD",
"K@	c #B0CCDD",
"L@	c #93BBD8",
"M@	c #91B7D5",
"N@	c #85A8C4",
"O@	c #80A6BD",
"P@	c #83ACC6",
"Q@	c #83B4CC",
"R@	c #82B4CE",
"S@	c #81B5CF",
"T@	c #81B6CF",
"U@	c #80B5CE",
"V@	c #81B4CE",
"W@	c #7DADC6",
"X@	c #719DB5",
"Y@	c #87B3CA",
"Z@	c #8DB7CE",
"`@	c #93BAD0",
" #	c #93B8CF",
".#	c #95B8D0",
"+#	c #9EBFD4",
"@#	c #AAC6D9",
"##	c #B4CCDB",
"$#	c #B3CDDD",
"%#	c #B1CBDC",
"&#	c #91B6D2",
"*#	c #83A6C1",
"=#	c #80A4BE",
"-#	c #83ADC5",
";#	c #83B3CC",
">#	c #82B4CD",
",#	c #82B2CD",
"'#	c #82B4CC",
")#	c #82B1CB",
"!#	c #85B1CA",
"~#	c #8BB4CC",
"{#	c #8EB4CC",
"]#	c #94B7CD",
"^#	c #91B5CD",
"/#	c #95B7D0",
"(#	c #9FC0D6",
"_#	c #ADC9DA",
":#	c #B5CEDC",
"<#	c #AECBDA",
"[#	c #94BBD9",
"}#	c #81A6C0",
"|#	c #7FA4BC",
"1#	c #80A9C2",
"2#	c #83B0C9",
"3#	c #83B1CB",
"4#	c #84B1CD",
"5#	c #83B2CB",
"6#	c #82B1C9",
"7#	c #84B1C8",
"8#	c #85B0C9",
"9#	c #89B1C9",
"0#	c #8AB1CB",
"a#	c #8AB4CB",
"b#	c #8DB3CB",
"c#	c #8EB2D0",
"d#	c #97BAD2",
"e#	c #A6C2D6",
"f#	c #B3CBDA",
"g#	c #B4CDDD",
"h#	c #8FB4D2",
"i#	c #82A6BE",
"j#	c #7EA2BB",
"k#	c #7FA7BE",
"l#	c #82AEC6",
"m#	c #82AEC9",
"n#	c #84B0C9",
"o#	c #83B0CB",
"p#	c #84B1CA",
"q#	c #84B0C7",
"r#	c #85B1C8",
"s#	c #87B0C8",
"t#	c #88B0CA",
"u#	c #8BB2CB",
"v#	c #8CB2CC",
"w#	c #90B6CF",
"x#	c #9EC0D4",
"y#	c #ADC6D8",
"z#	c #90B5D3",
"A#	c #83A6BF",
"B#	c #7FA3BB",
"C#	c #7DA3BB",
"D#	c #80A4BC",
"E#	c #81A9C3",
"F#	c #82ABC3",
"G#	c #85ACC5",
"H#	c #84AEC8",
"I#	c #86AFCA",
"J#	c #86AEC7",
"K#	c #89B1CB",
"L#	c #8AB2CD",
"M#	c #90B7D1",
"N#	c #99B9D1",
"O#	c #AAC3D7",
"P#	c #B4CEDD",
"Q#	c #99C5D9",
"R#	c #96B9D8",
"S#	c #92B6D5",
"T#	c #7DA2BA",
"U#	c #7EA3BB",
"V#	c #80A6BE",
"W#	c #81A6BF",
"X#	c #81A7C2",
"Y#	c #83ABC3",
"Z#	c #779EB7",
"`#	c #3B5E75",
" $	c #597D96",
".$	c #8DB4CE",
"+$	c #94BAD2",
"@$	c #9EBED3",
"#$	c #ABC8D9",
"$$	c #AFCCDC",
"%$	c #B4CCDD",
"&$	c #8BB4CE",
"*$	c #84A5C1",
"=$	c #80A3BD",
"-$	c #80A2BC",
";$	c #80A2BB",
">$	c #80A6BC",
",$	c #83A5C0",
"'$	c #85A7C1",
")$	c #113147",
"!$	c #678AA5",
"~$	c #97BAD3",
"{$	c #ACC8DA",
"]$	c #B0CADB",
"^$	c #AEC9DB",
"/$	c #9CC4D8",
"($	c #8BB2CF",
"_$	c #89AECA",
":$	c #8BB1CC",
"<$	c #8BB2CD",
"[$	c #8DB5D0",
"}$	c #8EB6D0",
"|$	c #8FB6D0",
"1$	c #567A93",
"2$	c #123247",
"3$	c #24465C",
"4$	c #8AB2CB",
"5$	c #97BCD5",
"6$	c #9DBED6",
"7$	c #ADC8DA",
"8$	c #B2CCDA",
"9$	c #B0CCDB",
"0$	c #ABC7DA",
"a$	c #A4BFD6",
"b$	c #91BAD5",
"c$	c #92B9D3",
"d$	c #91B8D3",
"e$	c #92BAD4",
"f$	c #93BAD5",
"g$	c #92B9D6",
"h$	c #92BAD5",
"i$	c #91B9D4",
"j$	c #7FA5C0",
"k$	c #8AB3CD",
"l$	c #94BAD3",
"m$	c #99BDD6",
"n$	c #A9C6D9",
"o$	c #B3CADB",
"p$	c #ACC7D9",
"q$	c #92BAD6",
"r$	c #8EB7D2",
"s$	c #8CB2CF",
"t$	c #8EB6D1",
"u$	c #8FB6D2",
"v$	c #8DB8D4",
"w$	c #8EB8D3",
"x$	c #90B9D4",
"y$	c #95BCD4",
"z$	c #A5C3D8",
"A$	c #ADCAD9",
"B$	c #A9C4D7",
"C$	c #91B9D5",
"D$	c #88AFCC",
"E$	c #84ABC4",
"F$	c #83ABC4",
"G$	c #84ACC7",
"H$	c #87B3CD",
"I$	c #87B5D0",
"J$	c #87B7D1",
"K$	c #88B9D3",
"L$	c #91BCD4",
"M$	c #A0C1D8",
"N$	c #ADC7D9",
"O$	c #7DA5BB",
"P$	c #7DA6BD",
"Q$	c #7CAAC3",
"R$	c #7CAEC7",
"S$	c #7CB1CA",
"T$	c #7EB2CE",
"U$	c #7FB3CE",
"V$	c #80B3D0",
"W$	c #80B5D3",
"X$	c #85B7D3",
"Y$	c #88B9D4",
"Z$	c #97BFD5",
"`$	c #A5C6D9",
" %	c #AFCBDA",
".%	c #95BAD7",
"+%	c #92B9D5",
"@%	c #8EB9D3",
"#%	c #83AAC4",
"$%	c #7FA3BC",
"%%	c #7DA4BD",
"&%	c #7CA9C1",
"*%	c #7BAEC9",
"=%	c #7AAFCD",
"-%	c #7CB4D0",
";%	c #7DB4D1",
">%	c #7CB3CF",
",%	c #7EB4CF",
"'%	c #7FB5D1",
")%	c #82B6D3",
"!%	c #83B6D5",
"~%	c #91BDD5",
"{%	c #9EC2D7",
"]%	c #ADCBDC",
"^%	c #A7C5D9",
"/%	c #8EB8D4",
"(%	c #83ADCA",
"_%	c #7DA2BB",
":%	c #7CA8C1",
"<%	c #7BADC8",
"[%	c #79B5CE",
"}%	c #79B5D0",
"|%	c #7AB4D2",
"1%	c #3F6B83",
"2%	c #6192AD",
"3%	c #81B6D1",
"4%	c #88BBD5",
"5%	c #94BDD5",
"6%	c #AAC9DA",
"7%	c #A9C5D9",
"8%	c #8CB7D3",
"9%	c #7EA6C0",
"0%	c #7CA0B8",
"a%	c #7DA1BA",
"b%	c #7DABC5",
"c%	c #7BB1CC",
"d%	c #79B4CF",
"e%	c #79B4D0",
"f%	c #79B5D1",
"g%	c #254B61",
"h%	c #4C7890",
"i%	c #82B5CE",
"j%	c #88B8D4",
"k%	c #8CBBD5",
"l%	c #A1C2D9",
"m%	c #B1CBDA",
"n%	c #ADC8D8",
"o%	c #8EB6D3",
"p%	c #7CA2BB",
"q%	c #7DA0B7",
"r%	c #7EA3BC",
"s%	c #7CADC7",
"t%	c #7AB2CD",
"u%	c #7AB2CF",
"v%	c #79B3D1",
"w%	c #79B6D1",
"x%	c #67A0BA",
"y%	c #1A3D53",
"z%	c #2A4F65",
"A%	c #79AAC1",
"B%	c #81B3CC",
"C%	c #82B6D1",
"D%	c #86B9D4",
"E%	c #8BBAD4",
"F%	c #AECADB",
"G%	c #8AB7D2",
"H%	c #7CA0B9",
"I%	c #7DA0B9",
"J%	c #80A7BF",
"K%	c #7EAEC7",
"L%	c #7DB2C8",
"M%	c #7EAFCD",
"N%	c #7AB4CD",
"O%	c #78B6D1",
"P%	c #78B5D0",
"Q%	c #78B5D1",
"R%	c #7BB2CE",
"S%	c #81B0CA",
"T%	c #84B5D1",
"U%	c #8BBBD4",
"V%	c #8DBCD4",
"W%	c #97BFD7",
"X%	c #ACC9DA",
"Y%	c #8DB7D1",
"Z%	c #7DA2B9",
"`%	c #7CA2B8",
" &	c #7FA8BD",
".&	c #82ADC4",
"+&	c #80AFC7",
"@&	c #7FAEC8",
"#&	c #7EB0CC",
"$&	c #79B4D1",
"%&	c #7FB0C9",
"&&	c #82B2CC",
"*&	c #85B6CF",
"=&	c #8BBBD3",
"-&	c #90BBD5",
";&	c #98C0D7",
">&	c #AEC8DA",
",&	c #90B8D3",
"'&	c #7DA1B9",
")&	c #7EA5BC",
"!&	c #83AAC3",
"~&	c #83ACC4",
"{&	c #82ABC5",
"]&	c #81ADC7",
"^&	c #7CB3CC",
"/&	c #79B3D0",
"(&	c #7DB2CF",
"_&	c #80B0CA",
":&	c #86B4CC",
"<&	c #8CBCD4",
"[&	c #92BED5",
"}&	c #9CC2D8",
"|&	c #B3CBDB",
"1&	c #96BAD6",
"2&	c #91B8D4",
"3&	c #7DA0B8",
"4&	c #84AAC0",
"5&	c #84ABC1",
"6&	c #83ABC2",
"7&	c #82A9C3",
"8&	c #81ADC8",
"9&	c #7CB1CD",
"0&	c #7DB1CD",
"a&	c #81AFC9",
"b&	c #84B0CB",
"c&	c #89B3CF",
"d&	c #8FBBD3",
"e&	c #95C0D7",
"f&	c #A3C4D8",
"g&	c #B4CBDC",
"h&	c #98B9D3",
"i&	c #7D9FB7",
"j&	c #7DA1B8",
"k&	c #80A5BC",
"l&	c #82AABF",
"m&	c #83A8BF",
"n&	c #82A8C0",
"o&	c #81A8C0",
"p&	c #80AAC2",
"q&	c #80ADC6",
"r&	c #81AEC7",
"s&	c #83AFC7",
"t&	c #86B1CB",
"u&	c #96BDD5",
"v&	c #9DC2D7",
"w&	c #A9C9DA",
"x&	c #98B7D1",
"y&	c #95B8D9",
"z&	c #88ACC9",
"A&	c #7CA1B7",
"B&	c #7EA5BB",
"C&	c #81A8BD",
"D&	c #81A7BC",
"E&	c #80A4BB",
"F&	c #81A6BC",
"G&	c #81A7BE",
"H&	c #87AFC9",
"I&	c #8CB4D0",
"J&	c #9DC2D8",
"K&	c #A4C7DA",
"L&	c #B0CCDC",
"M&	c #A0C7DA",
"N&	c #95B8D1",
"O&	c #82A3BD",
"P&	c #7C9FB8",
"Q&	c #7EA1B9",
"R&	c #7FA1B8",
"S&	c #81A5BF",
"T&	c #83A8C3",
"U&	c #89ADC8",
"V&	c #8FB6CE",
"W&	c #9FC1D8",
"X&	c #AECBD9",
"Y&	c #B0CDDB",
"Z&	c #93B7D3",
"`&	c #91B9D6",
" *	c #89ACCA",
".*	c #80A3BE",
"+*	c #7EA1BB",
"@*	c #8AAECA",
"#*	c #8FB4CF",
"$*	c #95B7D1",
"%*	c #9ABED6",
"&*	c #9FC2D6",
"**	c #A4C6D9",
"=*	c #A8C7D9",
"-*	c #AFCADB",
";*	c #8DB9D5",
">*	c #87A9C8",
",*	c #86ABC5",
"'*	c #88AECA",
")*	c #93B9D2",
"!*	c #9EBFD5",
"~*	c #A0C2D6",
"{*	c #A4C5D9",
"]*	c #A7C8DA",
"^*	c #ACC8DB",
"/*	c #8BB9D2",
"(*	c #8FB8D3",
"_*	c #90B9D6",
":*	c #A4C5DA",
"<*	c #A9C8DA",
"[*	c #8BB8D3",
"}*	c #9EBFD9",
"|*	c #A8C3D9",
"1*	c #AFC9DB",
"                    . + @ # $ % &                 ",
"                * = - ; > , ' ' & )               ",
"            ! ~ { ] ^ / ( _ : < & & [ }           ",
"          | ~ 1 2 3 4 5 6 7 8 9 0 a & &           ",
"          b c d e f g h i j k l m n o a &         ",
"        p q r s t u v w x y z A B C D E F G       ",
"        H q I J K L M N O P Q R S T U V a &       ",
"      W ~ X Y Z `  ...+.@.#.$.%.&.*.=.-.a ;.      ",
"      >.b ,.'.v ).!.~.{.].^./.(._.:.<.-.[.}.      ",
"      |.H W 1.2.3. .4.5.6.7.8.9.0.a.=.b.F & }.    ",
"      H c.d.e.f.g.h.i.j.k.l.m.n.o.p.q.r.s.& &     ",
"        t.u.v.w.x.y.z.A.B.C.D.E.F.G.H.I.}.a       ",
"        H J.K.L.M.N.O.P.Q.R.S.T.U.V.W.[.[.X.      ",
"        b ~ Y.Z.`. +.+++@+z.#+$+%+&+*+a s.        ",
"          =+c.-+;+>+,+'+z.)+.+!+~+{+]+& ^+        ",
"        /+(+_+:+<+[+}+|+1+2+3+4+5+6+% 7+(         ",
"        (+8+9+0+>+a+b+c+d+e+f+g+h+i+j+k+l+m+      ",
"      n+o+Z.p+q+r+s+t+u+v+w+x+y+z+A+B+C+D+E+k+    ",
"    e.F+9+G+H+I+J+K+L+M+N+O+P+Q+R+S+T+U+( V+W+j+  ",
"    X+Y+Z+`+ @.@+@@@#@$@%@&@*@=@-@;@>@,@'@E+)@!@  ",
"    ~@{@]@^@/@(@_@:@<@[@}@|@1@2@3@6.4@5@6@( 7@7 !@",
"  ~@=+8@9@0@a@b@c@d@e@f@g@h@i@j@k@l@m@n@o@k+p@q@r@",
"  s@Z.t@u@v@w@f@x@y@d@z@A@h@B@C@D@E@F@G@H@I@7@J@K@",
"  L@M@N@O@P@Q@R@S@T@U@V@W@X@Y@Z@`@ #.#+#@###/ $#%#",
"  (+&#*#=#-#;#>#R@,#'#)#!#+@~#{#]#^#/#(#_#I@:#C+<#",
"  [#Z+}#|#1#2#3#4#5#6#7#8#9#0#a#b#c#d#e#f#I@g#j+^+",
"  [#h#i#j#k#l#m#n#o#p#q#r#s#t#u#v#w#x#y#6 p@$#!@  ",
"  d.z#A#B#C#D#E#F#G#H#.@I#J#K#L#M#N#O#C j+P#/ Q#  ",
"  R#S#G#B#T#U#V#W#X#Y#/@Z#`# $.$+$@$#$$$7@%$%#    ",
"    c.&$*$=$-$;$>$,$'$x.)$h@g@!$~$@ {$]$_ ^$/$    ",
"      n+($@._$:$<$[$}$|$1$2$3$4$5$6$7$8$9$0$a$    ",
"        b$c$d$e$e$f$g$h$i$j$k$e$l$m$n$]$_ o$p$    ",
"    = h$h$q$h$a+r$s$.$t$u$v$w$L+x$y$z$A$r@7@q@B$  ",
"    -+h$h$h$C$D$E$F$G$.@H$I$J$K$$@L$M$0$7 p@J@N$  ",
"    q$h$h$|$E$O$P$Q$R$S$T$U$V$W$X$Y$Z$`$B+7@/  %  ",
"  .%=++%@%#%$%%%&%*%=%-%;%>%,%'%)%!%~%{%]%p@p@]$^%",
"  ~ ~ /%(%T#_%:%<%[%}%|%1%h@h@2%3%)%4%5%6%6 ##%#7%",
".%~ =+8%9%0%a%b%c%d%e%f%g%h@h@h%i%y@j%k%l%m%/ E+n%",
"v.~ g$o%p%q%r%s%t%u%v%w%x%y%z%A%B%C%D%E%I F%k+E+B+",
"=+~ h$G%H%I%J%K%L%M%N%O%P%Q%R%S%;#T%U%V%W%X%I@/ I@",
"o+b n+Y%Z%`% &.&+&@&#&e%Q%$&R%%&&&*&=&-&;&>&( / 6 ",
"c.~ ~@,&'&0%)&!&~&{&]&^&/&Q%(&_&p#:&<&[&}&^$|&/ / ",
"1&~ =+2&j#3&T#4&5&6&7&8&9&R%0&a&b&c&d&e&f&C ( / g&",
"h&~ ~ ~@}#i&j&k&l&m&n&o&p&q&r&s&t&t$u&v&w&6 k+/ F%",
"x&J.y&=+z&A&q%Z%B&C&D&E&F&G&!&H&I&c+J&K&L&7 / / M&",
"  N&c.~ =+O&3&i&P&Q&R&B#S&T&U&V&y+W&6%X&7@p@/ Y&  ",
"  Z&=@=+~ `& *.*+*E&*#@*#*$*%*&***=*-*I@I@7@7@    ",
"    r$;*~ ~ n+<$>*,*'*)*!*~*{*]*^*F%C+7@/ / `$    ",
"    /*(*_*~ ~ ~ o+9+g$- :*<*B+j+( I@/ 7@/         ",
"        [*g$~ ~ =+~ H [#}*|*1*7@7@/ / 7@          "};
